<svg id="Capa_1" enable-background="new 0 0 512 512" height="512" viewBox="0 0 512 512" width="512" xmlns="http://www.w3.org/2000/svg" xmlns:xlink="http://www.w3.org/1999/xlink"><linearGradient id="SVGID_1_" gradientUnits="userSpaceOnUse" x1="256" x2="256" y1="512" y2="0"><stop offset="0" stop-color="#00b59c"/><stop offset="1" stop-color="#9cffac"/></linearGradient><path d="m497 482h-10.002v-1.678c0-12.473 6.708-24.096 17.504-30.335 7.173-4.145 9.628-13.319 5.483-20.492s-13.319-9.63-20.492-5.482c-6.759 3.905-12.65 8.95-17.496 14.805-4.846-5.855-10.737-10.9-17.496-14.805-7.174-4.146-16.348-1.689-20.492 5.482-4.145 7.174-1.689 16.348 5.483 20.493 10.797 6.238 17.504 17.861 17.504 30.334v1.678h-69.996v-1.678c0-12.473 6.708-24.096 17.504-30.335 7.173-4.145 9.628-13.319 5.483-20.492s-13.319-9.63-20.492-5.482c-6.759 3.905-12.65 8.95-17.496 14.805-4.846-5.855-10.737-10.9-17.496-14.805-7.174-4.146-16.348-1.689-20.492 5.482-4.145 7.174-1.689 16.348 5.483 20.493 10.798 6.239 17.506 17.862 17.506 30.334v1.678h-56v-122h25c8.284 0 15-6.716 15-15v-15h15c8.284 0 15-6.716 15-15s-6.716-15-15-15h-15v-15c0-8.284-6.716-15-15-15h-5v-35c0-35.841-29.159-65-65-65s-65 29.159-65 65v35h-5c-8.284 0-15 6.716-15 15v15h-15c-8.284 0-15 6.716-15 15s6.716 15 15 15h15v15c0 8.284 6.716 15 15 15h25v122h-56v-1.678c0-12.473 6.708-24.096 17.504-30.334 7.173-4.146 9.628-13.319 5.483-20.493-4.145-7.173-13.319-9.63-20.492-5.482-6.759 3.905-12.65 8.95-17.496 14.805-4.846-5.855-10.737-10.9-17.496-14.805-7.173-4.146-16.348-1.689-20.492 5.482-4.145 7.173-1.689 16.348 5.483 20.492 10.798 6.24 17.506 17.863 17.506 30.335v1.678h-69.998v-1.678c0-12.473 6.708-24.096 17.504-30.334 7.173-4.146 9.628-13.319 5.483-20.493-4.145-7.173-13.319-9.63-20.492-5.482-6.759 3.905-12.65 8.95-17.496 14.805-4.846-5.855-10.737-10.9-17.496-14.805-7.174-4.146-16.348-1.689-20.492 5.482-4.145 7.173-1.689 16.348 5.483 20.492 10.797 6.239 17.504 17.862 17.504 30.335v1.678h-10c-8.284 0-15 6.716-15 15s6.716 15 15 15h482c8.284 0 15-6.716 15-15s-6.716-15-15-15zm-276-247c0-19.299 15.701-35 35-35s35 15.701 35 35v35h-70zm-20 65h110v30h-110zm40 60h30v122h-30zm220-125c0-8.284 6.716-15 15-15s15 6.716 15 15-6.716 15-15 15-15-6.716-15-15zm-40-15c8.284 0 15 6.716 15 15s-6.716 15-15 15-15-6.716-15-15 6.716-15 15-15zm-70 15c0-8.284 6.716-15 15-15s15 6.716 15 15-6.716 15-15 15-15-6.716-15-15zm-330 0c0-8.284 6.716-15 15-15s15 6.716 15 15-6.716 15-15 15-15-6.716-15-15zm55 0c0-8.284 6.716-15 15-15s15 6.716 15 15-6.716 15-15 15-15-6.716-15-15zm70-15c8.284 0 15 6.716 15 15s-6.716 15-15 15-15-6.716-15-15 6.716-15 15-15zm254.957-129.957c-5.858-5.858-5.858-15.355 0-21.213s15.355-5.858 21.213 0 5.858 15.355 0 21.213-15.355 5.858-21.213 0zm-38.891 38.891c-5.858-5.858-5.858-15.355 0-21.213s15.355-5.858 21.213 0 5.858 15.355 0 21.213-15.355 5.858-21.213 0zm-38.891 38.891c-5.858-5.858-5.858-15.355 0-21.213s15.355-5.858 21.213 0 5.858 15.355 0 21.213c-5.857 5.858-15.355 5.858-21.213 0zm-82.175-152.825c0-8.284 6.716-15 15-15s15 6.716 15 15-6.716 15-15 15-15-6.716-15-15zm0 55c0-8.284 6.716-15 15-15s15 6.716 15 15-6.716 15-15 15-15-6.716-15-15zm0 55c0-8.284 6.716-15 15-15s15 6.716 15 15-6.716 15-15 15-15-6.716-15-15zm-151.17-34.957c-5.858-5.858-5.858-15.355 0-21.213s15.355-5.858 21.213 0 5.858 15.355 0 21.213-15.355 5.858-21.213 0zm38.891 38.891c-5.858-5.858-5.858-15.355 0-21.213s15.355-5.858 21.213 0 5.858 15.355 0 21.213-15.355 5.858-21.213 0zm38.891 38.891c-5.858-5.858-5.858-15.355 0-21.213s15.355-5.858 21.213 0 5.858 15.355 0 21.213-15.355 5.858-21.213 0z" fill="url(#SVGID_1_)"/></svg>
